<?xml version="1.0" encoding="UTF-8"?><svg xmlns="http://www.w3.org/2000/svg" viewBox="0 0 1575.53 411.83"><g id="Layer_1"><path d="M255.29,130.14c-21.71-34.74-51.01-52.35-87.08-52.35-19.63,0-38.59,5.44-56.36,16.18l-.56.39c-28.88,22.99-43.52,49.38-43.52,78.46v6.09c0,13.07,3.47,27,10.33,41.41l.23.42c21.13,35.75,50.92,53.87,88.53,53.87,22.38,0,42.87-6.92,61.09-20.72,25.66-21.18,38.68-46.64,38.68-75.66v-4.06c0-13.16-3.71-27.78-11.02-43.45l-.31-.57ZM230.08,176.2c0,5.93-1.63,14.23-4.83,24.69-13.88,25.13-33.3,37.87-57.73,37.87-6.3,0-14.14-1.43-22.7-4.15-27.64-13.09-40.52-31.66-40.52-58.41,0-6.14,1.62-14.44,4.82-24.69,13.83-25.44,32.86-37.83,58.16-37.87,10.76.52,20.68,3.13,29.5,7.76,22.09,13.3,33.29,31.73,33.29,54.79Z" style="fill:#001e61;"/></g><g id="Layer_2"><path d="M479.34,150.86v123.75h-37.88v-123.78c0-12.9-3.04-22.46-9.01-28.36-6-5.93-15.45-8.86-28.26-8.67-12.88,0-23.46,2.15-31.91,6.59v-36.44c9.67-3.99,20.37-6,31.98-6,24.93,0,43.98,6.44,56.66,19.15,12.27,12.32,18.49,30.39,18.41,53.75Z" style="fill:#001e61;"/><path d="M354.48,82.34v192.27h-38.47V122.38l-.15.39c-4.73,17.04-36.07,17.53-39.62,17.53h-3.58v-35.14l3.06-.44c23.17-3.31,33.94-15.18,34.04-15.3l6.24-7.08h38.47Z" style="fill:#001e61;"/></g><g id="Layer_3"><path d="M666.61,204.62l-5.55,6.96c-14.38,18.03-33.27,27.17-56.14,27.17-15.9,0-28.43-3.34-37.13-9.84-14.76-11.57-23.49-23.82-26.01-36.48h149.19l.17-7.6c.6-25.04-2.9-44.78-10.4-58.67v-.02c-17.63-32.31-44.51-48.7-79.89-48.7-14.56,0-27,2.27-36.88,6.72-40.38,17.28-60.86,48.13-60.86,91.7,0,18.52,5.18,36.3,15.44,52.9,19.81,30.87,48.97,46.53,86.69,46.53,33.6,0,61.43-12.88,82.74-38.3l4.46-5.34-25.85-27.02ZM541.39,158.61c.49-4.58,1.44-8.28,2.87-11.08,11.34-22.89,28.68-33.55,54.57-33.55,9.8,0,18.42,1.78,25.53,5.23,17.05,8.75,26.05,21.36,28,39.4h-110.97Z" style="fill:#001e61;"/></g><g id="Layer_4"><path d="M861.93,93.38c-15.27-6.68-30.34-10.07-44.79-10.07-20.59,0-39.98,6.46-57.8,19.22v-14.66h-37.24v296.79l37.24-.28v-124.58c17.56,12.63,37.62,19.01,59.83,19.01,32.34,0,58.38-13.03,77.38-38.69,13.52-17.98,20.37-37.85,20.37-59.06,0-41.64-18.47-71.13-54.99-87.69ZM881.04,182.53c.4,26.01-13.29,45.1-41.95,58.4-3.19,1.53-9.59,3.36-21.94,3.36-23.62,0-41.29-10.78-53.98-32.89-2.43-4.33-3.43-7.09-3.82-8.75v-41.54c4.12-13.97,11.49-24.31,22.39-31.51,12.31-7.79,24.68-11.75,36.77-11.75,26.57,0,45.27,11.96,57.2,36.64,3.54,7.08,5.34,16.48,5.34,27.93v.11Z" style="fill:#001e61;"/></g><g id="Layer_5"><path d="M1087.95,102.54c-30.34-21.72-65.43-25.41-102.68-9.12-36.43,16.52-54.9,46.01-54.9,87.65,0,21.21,6.85,41.08,20.35,59.04,19.14,25.69,45.19,38.71,77.4,38.71,22.21,0,42.28-6.38,59.83-19.01v14.56l37.24.28V87.88h-37.24v14.66ZM1087.95,202.65c-.4,1.66-1.39,4.42-3.79,8.69-12.73,22.17-30.4,32.95-54.02,32.95-12.36,0-18.75-1.83-22.03-3.4-28.58-13.25-42.27-32.34-41.87-58.35v-.11c0-11.44,1.8-20.84,5.38-28.01,11.89-24.6,30.59-36.56,57.16-36.56,12.09,0,24.46,3.95,36.65,11.67,11.01,7.27,18.38,17.61,22.51,31.58v41.53Z" style="fill:#001e61;"/></g><g id="Layer_6"><path d="M1290.34,217.2c-14.95,18.68-32.59,27.76-53.95,27.76-7.96,0-16.52-2.06-25.29-6.04-24.61-12-36.58-30.04-36.58-55.14v-4.06c0-8.76,2.48-18.15,7.34-27.88,11.41-22.41,29.46-33.3,55.2-33.3,18.32,0,34.55,7.68,49.63,23.49l5.04,5.28,24.92-24.92-4.73-5.03c-20.82-22.13-45.54-33.35-73.5-33.35-16.13,0-31.29,3.43-45.22,10.27-36.21,18.83-54.56,48.26-54.56,87.48,0,21.58,6.19,40.56,18.47,56.53,21.71,27.11,48.14,40.98,78.6,41.22,28.82,0,55.8-12.79,80.19-38.02l4.87-5.04-25.46-25.46-4.97,6.21Z" style="fill:#001e61;"/></g><g id="Layer_7"><polygon points="1389.72 173.09 1494.16 87.88 1439.3 87.88 1369.42 145.74 1370.06 17.71 1332.78 17.71 1332.78 274.42 1370.03 274.42 1370.03 202.2 1453.76 274.42 1507.76 274.42 1389.72 173.09" style="fill:#001e61;"/></g><g id="Layer_8"><path d="M913.9,351.68c-9.37-1.02-20.54-3.62-20.54-10.15.07-6,6.66-9.04,19.56-9.04,9.75.12,17.39,3.07,22.7,8.78l1.18,1.27,9.33-7.97-1.33-1.38c-7.79-8.1-18.21-12.2-30.96-12.2h-.01c-10.63.07-18.77,1.73-24.18,4.96-5.72,3.41-8.6,8.57-8.55,15.34.28,11.89,11.09,19.2,32.14,21.74,9.88,1.21,21.59,4,21.34,10.33-.36,6.32-7.65,9.65-21.64,9.88-11.35.07-20.22-4.44-26.96-13.94l-1.16-1.63-8.85,7.74.95,1.33c8.17,11.39,20.11,17.24,35.5,17.37.44,0,.87,0,1.3,0,13.57,0,22.76-2.56,28.07-7.81,3.34-3.31,5.04-7.65,5.04-12.91,0-12.01-11.08-19.32-32.93-21.72Z" style="fill:#001e61;"/></g><g id="Layer_9"><path d="M998.04,320.99c-7.17,0-14.09,1.97-20.73,5.99-10.59,8.43-15.96,18.07-15.96,28.66v2.29c0,4.75,1.26,9.81,3.82,15.18,7.74,13.09,18.63,19.73,32.36,19.73,8.18,0,15.65-2.52,22.28-7.54,9.39-7.75,14.15-17.04,14.15-27.62v-1.53c0-4.79-1.34-10.1-4.09-15.98-7.95-12.73-18.66-19.18-31.83-19.18ZM997.78,381.59c-2.56,0-5.63-.57-8.91-1.61-10.78-5.07-16.02-12.61-16.02-23.06,0-2.44.64-5.72,1.9-9.73,5.43-10.05,12.97-14.94,22.94-14.94,4.25.2,8.19,1.24,11.63,3.05,8.83,5.3,13.13,12.37,13.13,21.62,0,2.36-.64,5.64-1.9,9.73-5.51,10.05-12.97,14.94-22.77,14.94Z" style="fill:#001e61;"/></g><g id="Layer_10"><rect x="1052.75" y="296.29" width="12.27" height="94.89" style="fill:#001e61;"/></g><g id="Layer_11"><path d="M1134.47,372.51c-4.62,5.76-10.35,8.56-17.5,8.56-5.33.03-9.16-1.15-11.62-3.58-2.36-2.33-3.55-5.96-3.55-10.78v-43.94h-12.01v43.94c-.02,8.14,2.14,14.45,6.43,18.74,4.55,4.56,11.52,6.87,20.71,6.87,6.1,0,12.03-2.57,17.67-7.66v6.51h12.27v-68.41h-12.26l-.13,49.75Z" style="fill:#001e61;"/></g><g id="Layer_12"><path d="M1208.58,379.24c-3.33,1.39-7.44,2.09-12.25,2.09-2.37.05-4.21-.52-5.4-1.7-1.35-1.34-2.02-3.6-2-6.74v-39.76h16.04v-10.48h-16.04v-19.22h-12.27v19.22h-7.64v10.48h7.38v39.65c.09,13.12,7.08,20.06,20.2,20.06,6.09,0,11.33-.81,15.59-2.4l1.57-.59-3.33-11.37-1.86.78Z" style="fill:#001e61;"/></g><g id="Layer_13"><path d="M1236.18,301.51c-2.14,0-4,.76-5.53,2.27-1.54,1.51-2.32,3.37-2.32,5.52s.78,4.01,2.31,5.54c1.53,1.53,3.4,2.31,5.54,2.31s4.01-.78,5.52-2.32c1.5-1.53,2.27-3.39,2.27-5.53s-.77-3.99-2.28-5.51c-1.51-1.51-3.37-2.28-5.51-2.28Z" style="fill:#001e61;"/><rect x="1229.86" y="322.77" width="12.27" height="68.41" style="fill:#001e61;"/></g><g id="Layer_14"><path d="M1302.82,320.99c-7.17,0-14.09,1.97-20.73,5.99-10.59,8.43-15.96,18.07-15.96,28.66v2.29c0,4.75,1.26,9.81,3.82,15.18,7.74,13.09,18.63,19.73,32.36,19.73,8.18,0,15.65-2.52,22.28-7.54,9.39-7.75,14.15-17.04,14.15-27.62v-1.53c0-4.79-1.34-10.1-4.09-15.98-7.95-12.73-18.66-19.18-31.83-19.18ZM1302.56,381.59c-2.56,0-5.63-.57-8.91-1.61-10.78-5.07-16.02-12.61-16.02-23.06,0-2.44.64-5.72,1.9-9.73,5.43-10.05,12.97-14.94,22.94-14.94,4.25.2,8.19,1.24,11.63,3.05,8.83,5.3,13.13,12.37,13.13,21.62,0,2.36-.64,5.64-1.9,9.73-5.51,10.05-12.97,14.94-22.77,14.94Z" style="fill:#001e61;"/></g><g id="Layer_15"><path d="M1390.01,321.05c-7.86,0-14.51,2.51-19.84,7.49v-5.83h-12.27v68.47h12.26l.13-49.28c3.56-6.46,10-9.6,19.67-9.6,5.19-.04,8.98,1.15,11.44,3.58,2.47,2.45,3.73,6.31,3.73,11.48v43.82h12.01v-43.81c.02-8.48-2.2-15.02-6.61-19.44-4.55-4.56-11.46-6.88-20.53-6.88Z" style="fill:#001e61;"/></g><g id="Layer_16"><path d="M1472.5,351.68c-9.37-1.02-20.54-3.62-20.54-10.15.07-6,6.66-9.04,19.56-9.04,9.75.12,17.39,3.07,22.7,8.78l1.18,1.27,9.33-7.97-1.33-1.38c-7.79-8.1-18.21-12.2-30.96-12.2h-.01c-10.63.07-18.77,1.73-24.18,4.96-5.72,3.41-8.6,8.57-8.55,15.34.28,11.89,11.09,19.2,32.14,21.74,9.88,1.21,21.59,4,21.34,10.33-.36,6.32-7.65,9.65-21.64,9.88-11.38.07-20.22-4.44-26.96-13.94l-1.16-1.63-8.85,7.74.95,1.33c8.17,11.39,20.11,17.24,35.5,17.37.44,0,.87,0,1.3,0,13.57,0,22.76-2.56,28.07-7.81,3.34-3.31,5.04-7.65,5.04-12.91,0-12.01-11.08-19.32-32.93-21.72Z" style="fill:#001e61;"/></g></svg>